<?xml version="1.0" encoding="utf-8"?>
<!-- Generator: Adobe Illustrator 25.2.1, SVG Export Plug-In . SVG Version: 6.00 Build 0)  -->
<svg fill="#000000" width="52" height="52" version="1.1" id="lni_lni-arrow-long-left-c" xmlns="http://www.w3.org/2000/svg" xmlns:xlink="http://www.w3.org/1999/xlink"
	 x="0px" y="0px" viewBox="0 0 64 64" style="enable-background:new 0 0 64 64;" xml:space="preserve">
<path d="M55.2,24.6c-3.3,0-6.1,2.2-7.1,5.2H9.2l7.5-7.2c0.9-0.9,0.9-2.3,0-3.2c-0.9-0.9-2.3-0.9-3.2,0L2.1,30.4
	c-0.4,0.4-0.7,1-0.7,1.6s0.2,1.2,0.7,1.6l11.4,11.1c0.4,0.4,1,0.6,1.6,0.6c0.6,0,1.2-0.2,1.6-0.7c0.9-0.9,0.8-2.3,0-3.2l-7.5-7.2
	h38.9c1,3,3.8,5.2,7.1,5.2c4.1,0,7.4-3.3,7.4-7.4C62.6,27.9,59.3,24.6,55.2,24.6z M55.2,34.9c-1.6,0-2.9-1.3-2.9-2.9
	s1.3-2.9,2.9-2.9s2.9,1.3,2.9,2.9S56.8,34.9,55.2,34.9z"/>
</svg>
