<svg fill="#000000" width="52" height="52" version="1.1" id="lni_lni-shopping-bag-15" xmlns="http://www.w3.org/2000/svg" xmlns:xlink="http://www.w3.org/1999/xlink"
	 x="0px" y="0px" viewBox="0 0 64 64" style="enable-background:new 0 0 64 64;" xml:space="preserve">
<g>
	<path d="M61.9,53.3L56.7,8.7c-0.5-4.3-4.1-7.5-8.4-7.5H15.7c-4.3,0-7.9,3.2-8.4,7.5L2.1,53.3c-0.3,2.4,0.5,4.8,2.1,6.6
		c1.6,1.8,3.9,2.8,6.3,2.8h43c2.4,0,4.7-1,6.3-2.8C61.4,58.1,62.2,55.7,61.9,53.3z M57.2,57.6c-0.9,1.1-2.3,1.7-3.7,1.7h-43
		c-1.4,0-2.8-0.6-3.7-1.7c-0.9-1.1-1.4-2.5-1.2-3.9l5.1-44.6c0.3-2.5,2.4-4.4,4.9-4.4h32.7c2.5,0,4.6,1.9,4.9,4.4l5.1,44.6
		C58.6,55.1,58.1,56.5,57.2,57.6z"/>
	<path d="M42.2,15.4c-0.9,0.2-1.5,1.1-1.3,2.1c0.1,0.6,0.2,1.3,0.2,1.9c0,5-4,9-9,9c-5,0-9-4-9-9c0-0.6,0.1-1.3,0.2-1.9
		c0.2-0.9-0.4-1.9-1.3-2.1c-0.9-0.2-1.9,0.4-2.1,1.3c-0.2,0.9-0.3,1.8-0.3,2.6c0,6.9,5.6,12.5,12.5,12.5c6.9,0,12.5-5.6,12.5-12.5
		c0-0.9-0.1-1.8-0.3-2.6C44,15.8,43.1,15.2,42.2,15.4z"/>
</g>
</svg>
