<svg fill="#000000" width="52" height="52" version="1.1" id="lni_lni-bot-1" xmlns="http://www.w3.org/2000/svg" xmlns:xlink="http://www.w3.org/1999/xlink" x="0px"
	 y="0px" viewBox="0 0 64 64" style="enable-background:new 0 0 64 64;" xml:space="preserve">
<g>
	<path d="M16.1,35.6h-4.6c-1,0-1.8,0.8-1.8,1.8s0.8,1.8,1.8,1.8h4.6c1,0,1.8-0.8,1.8-1.8S17.1,35.6,16.1,35.6z"/>
	<path d="M41.5,35.6h-4.6c-1,0-1.8,0.8-1.8,1.8s0.8,1.8,1.8,1.8h4.6c1,0,1.8-0.8,1.8-1.8S42.5,35.6,41.5,35.6z"/>
	<path d="M57.2,32.9H57V18.2c2.5-0.8,4.4-3.1,4.4-5.8c0-3.4-2.7-6.1-6.1-6.1s-6.1,2.7-6.1,6.1c0,2.8,1.8,5.1,4.4,5.8v14.7h-2.3v-1.5
		c0-3.7-3-6.8-6.8-6.8h-6.7v-2.9c0-3.1-2.5-5.6-5.6-5.6h-3.9V8.7c0-1-0.8-1.8-1.8-1.8s-1.8,0.8-1.8,1.8v7.4h-3.9
		c-3.1,0-5.6,2.5-5.6,5.6v2.9H8c-3.7,0-6.8,3-6.8,6.8V51c0,3.7,3,6.8,6.8,6.8h36.4c3.7,0,6.8-3,6.8-6.8v-1.5h6.1
		c3.1,0,5.6-2.5,5.6-5.6v-5.5C62.8,35.3,60.3,32.9,57.2,32.9z M52.6,12.3c0-1.4,1.2-2.6,2.6-2.6s2.6,1.2,2.6,2.6s-1.2,2.6-2.6,2.6
		S52.6,13.8,52.6,12.3z M18.9,21.7c0-1.1,0.9-2.1,2.1-2.1h11.2c1.1,0,2.1,0.9,2.1,2.1v2.9H18.9V21.7z M47.6,51
		c0,1.8-1.5,3.3-3.3,3.3H8c-1.8,0-3.3-1.5-3.3-3.3V31.3c0-1.8,1.5-3.3,3.3-3.3h36.4c1.8,0,3.3,1.5,3.3,3.3V51z M59.3,43.9
		c0,1.1-0.9,2.1-2.1,2.1h-6.1v-9.7h6.1c1.1,0,2.1,0.9,2.1,2.1V43.9z"/>
	<path d="M30.3,42.9c-1,0-1.8,0.8-1.8,1.8c0,1.1-0.9,2-2,2s-2-0.9-2-2c0-1-0.8-1.8-1.8-1.8S21,43.7,21,44.6c0,3.1,2.5,5.5,5.5,5.5
		c3.1,0,5.5-2.5,5.5-5.5C32.1,43.7,31.3,42.9,30.3,42.9z"/>
</g>
</svg>
