<svg fill="#000000" width="52" height="52" version="1.1" id="lni_lni-calender-alt-4" xmlns="http://www.w3.org/2000/svg" xmlns:xlink="http://www.w3.org/1999/xlink"
	 x="0px" y="0px" viewBox="0 0 64 64" style="enable-background:new 0 0 64 64;" xml:space="preserve">
<g>
	<path d="M56,10.4h-5.1V7.5c0-1-0.8-1.8-1.8-1.8s-1.8,0.8-1.8,1.8v2.9H16.6V7.5c0-1-0.8-1.8-1.8-1.8s-1.8,0.8-1.8,1.8v2.9H8
		c-3.7,0-6.8,3-6.8,6.8v34.3c0,3.7,3,6.8,6.8,6.8h48c3.7,0,6.8-3,6.8-6.8V17.2C62.8,13.4,59.7,10.4,56,10.4z M8,13.9h5.1v1.5
		c0,1,0.8,1.8,1.8,1.8s1.8-0.8,1.8-1.8v-1.5h30.8v1.5c0,1,0.8,1.8,1.8,1.8s1.8-0.8,1.8-1.8v-1.5H56c1.8,0,3.3,1.5,3.3,3.3v6.6H4.8
		v-6.6C4.8,15.4,6.2,13.9,8,13.9z M56,54.7H8c-1.8,0-3.3-1.5-3.3-3.3V27.3h54.5v24.2C59.3,53.3,57.8,54.7,56,54.7z"/>
	<path d="M39.5,34l-9.4,9.4L26.7,40c-0.7-0.7-1.8-0.7-2.5,0c-0.7,0.7-0.7,1.8,0,2.5l4.6,4.6c0.3,0.3,0.8,0.5,1.2,0.5
		s0.9-0.2,1.2-0.5l10.6-10.6c0.7-0.7,0.7-1.8,0-2.5S40.1,33.3,39.5,34z"/>
</g>
</svg>
