<svg fill="#000000" width="52" height="52" version="1.1" id="lni_lni-calender-minus" xmlns="http://www.w3.org/2000/svg" xmlns:xlink="http://www.w3.org/1999/xlink"
	 x="0px" y="0px" viewBox="0 0 64 64" style="enable-background:new 0 0 64 64;" xml:space="preserve">
<g>
	<path d="M56.2,6.5H51V3.6c0-1-0.8-1.8-1.8-1.8s-1.8,0.8-1.8,1.8v2.9h-31V3.6c0-1-0.8-1.8-1.8-1.8S13,2.6,13,3.6v2.9H7.8
		c-3.6,0-6.6,3-6.6,6.6v28.8c0,3.6,3,6.6,6.6,6.6h22.5c1,0,1.8-0.8,1.8-1.8S31.3,45,30.3,45H7.8c-1.7,0-3.1-1.4-3.1-3.1V23.4h54.5
		v11.5c0,1,0.8,1.8,1.8,1.8s1.8-0.8,1.8-1.8V13.1C62.8,9.5,59.8,6.5,56.2,6.5z M4.8,19.9v-6.8c0-1.7,1.4-3.1,3.1-3.1H13v1.6
		c0,1,0.8,1.8,1.8,1.8s1.8-0.8,1.8-1.8V10h31v1.6c0,1,0.8,1.8,1.8,1.8s1.8-0.8,1.8-1.8V10h5.2c1.7,0,3.1,1.4,3.1,3.1v6.8H4.8z"/>
	<path d="M48.9,36.8c-7,0-12.7,5.7-12.7,12.7c0,7,5.7,12.7,12.7,12.7c7,0,12.7-5.7,12.7-12.7C61.5,42.5,55.9,36.8,48.9,36.8z
		 M48.9,58.6c-5.1,0-9.2-4.1-9.2-9.2s4.1-9.2,9.2-9.2s9.2,4.1,9.2,9.2S53.9,58.6,48.9,58.6z"/>
	<path d="M52.1,47.7h-6.4c-1,0-1.8,0.8-1.8,1.8s0.8,1.8,1.8,1.8h6.4c1,0,1.8-0.8,1.8-1.8S53,47.7,52.1,47.7z"/>
</g>
</svg>
