<svg fill="#000000" width="52" height="52" version="1.1" id="lni_lni-calender-alt-1" xmlns="http://www.w3.org/2000/svg" xmlns:xlink="http://www.w3.org/1999/xlink"
	 x="0px" y="0px" viewBox="0 0 64 64" style="enable-background:new 0 0 64 64;" xml:space="preserve">
<g>
	<path d="M57,10.4h-6.3V7.6c0-1-0.8-1.8-1.8-1.8s-1.8,0.8-1.8,1.8v2.8H16.8V7.6c0-1-0.8-1.8-1.8-1.8s-1.8,0.8-1.8,1.8v2.8H7
		c-3.2,0-5.8,2.6-5.8,5.8v36.3c0,3.2,2.6,5.8,5.8,5.8h50c3.2,0,5.8-2.6,5.8-5.8V16.1C62.8,12.9,60.2,10.4,57,10.4z M7,13.9h6.3v2.7
		c0,1,0.8,1.8,1.8,1.8s1.8-0.8,1.8-1.8v-2.7h30.4v2.7c0,1,0.8,1.8,1.8,1.8s1.8-0.8,1.8-1.8v-2.7H57c1.2,0,2.3,1,2.3,2.3v7.6H4.8
		v-7.6C4.8,14.9,5.8,13.9,7,13.9z M57,54.7H7c-1.2,0-2.3-1-2.3-2.3V27.2h54.5v25.2C59.3,53.7,58.2,54.7,57,54.7z"/>
	<path d="M50.4,32.2h-2.2c-0.6,0-1,0.4-1,1v2.2c0,0.6,0.4,1,1,1h2.2c0.6,0,1-0.4,1-1v-2.2C51.4,32.6,50.9,32.2,50.4,32.2z"/>
	<path d="M24.5,32.2h-2.2c-0.6,0-1,0.4-1,1v2.2c0,0.6,0.4,1,1,1h2.2c0.6,0,1-0.4,1-1v-2.2C25.5,32.6,25,32.2,24.5,32.2z"/>
	<path d="M33.1,32.2h-2.2c-0.6,0-1,0.4-1,1v2.2c0,0.6,0.4,1,1,1h2.2c0.6,0,1-0.4,1-1v-2.2C34.1,32.6,33.7,32.2,33.1,32.2z"/>
	<path d="M41.7,32.2h-2.2c-0.6,0-1,0.4-1,1v2.2c0,0.6,0.4,1,1,1h2.2c0.6,0,1-0.4,1-1v-2.2C42.7,32.6,42.3,32.2,41.7,32.2z"/>
	<path d="M50.4,38.9h-2.2c-0.6,0-1,0.4-1,1v2.2c0,0.6,0.4,1,1,1h2.2c0.6,0,1-0.4,1-1v-2.2C51.4,39.3,50.9,38.9,50.4,38.9z"/>
	<path d="M15.9,38.9h-2.2c-0.6,0-1,0.4-1,1v2.2c0,0.6,0.4,1,1,1h2.2c0.6,0,1-0.4,1-1v-2.2C16.9,39.3,16.4,38.9,15.9,38.9z"/>
	<path d="M24.5,38.9h-2.2c-0.6,0-1,0.4-1,1v2.2c0,0.6,0.4,1,1,1h2.2c0.6,0,1-0.4,1-1v-2.2C25.5,39.3,25,38.9,24.5,38.9z"/>
	<path d="M33.1,38.9h-2.2c-0.6,0-1,0.4-1,1v2.2c0,0.6,0.4,1,1,1h2.2c0.6,0,1-0.4,1-1v-2.2C34.1,39.3,33.7,38.9,33.1,38.9z"/>
	<path d="M41.7,38.9h-2.2c-0.6,0-1,0.4-1,1v2.2c0,0.6,0.4,1,1,1h2.2c0.6,0,1-0.4,1-1v-2.2C42.7,39.3,42.3,38.9,41.7,38.9z"/>
	<path d="M15.9,45.6h-2.2c-0.6,0-1,0.4-1,1v2.2c0,0.6,0.4,1,1,1h2.2c0.6,0,1-0.4,1-1v-2.2C16.9,46,16.4,45.6,15.9,45.6z"/>
	<path d="M24.5,45.6h-2.2c-0.6,0-1,0.4-1,1v2.2c0,0.6,0.4,1,1,1h2.2c0.6,0,1-0.4,1-1v-2.2C25.5,46,25,45.6,24.5,45.6z"/>
	<path d="M33.1,45.6h-2.2c-0.6,0-1,0.4-1,1v2.2c0,0.6,0.4,1,1,1h2.2c0.6,0,1-0.4,1-1v-2.2C34.1,46,33.7,45.6,33.1,45.6z"/>
	<path d="M41.7,45.6h-2.2c-0.6,0-1,0.4-1,1v2.2c0,0.6,0.4,1,1,1h2.2c0.6,0,1-0.4,1-1v-2.2C42.7,46,42.3,45.6,41.7,45.6z"/>
</g>
</svg>
