<svg fill="#000000" width="52" height="52" version="1.1" id="lni_lni-bar-chart-1" xmlns="http://www.w3.org/2000/svg" xmlns:xlink="http://www.w3.org/1999/xlink"
	 x="0px" y="0px" viewBox="0 0 64 64" style="enable-background:new 0 0 64 64;" xml:space="preserve">
<g>
	<path d="M61,56.6H6.6c-1,0-1.9-0.8-1.9-1.9V5.7c0-1-0.8-1.8-1.8-1.8S1.3,4.7,1.3,5.7v49.1c0,3,2.4,5.4,5.4,5.4H61
		c1,0,1.8-0.8,1.8-1.8S62,56.6,61,56.6z"/>
	<path d="M18.4,40.8c4.1,0,7.4-3.3,7.4-7.4c0-1-0.2-1.9-0.5-2.8l5-3.1c1.3,1.3,3.2,2.2,5.2,2.2c4.1,0,7.4-3.3,7.4-7.4
		c0-0.9-0.2-1.7-0.4-2.5l6.3-3.5c1.4,1.5,3.3,2.4,5.5,2.4c4.1,0,7.4-3.3,7.4-7.4s-3.3-7.4-7.4-7.4s-7.4,3.3-7.4,7.4
		c0,0.7,0.1,1.3,0.3,1.9l-6.6,3.6c-1.3-1.2-3.1-2-5-2c-4.1,0-7.4,3.3-7.4,7.4c0,0.8,0.1,1.5,0.4,2.2l-5.2,3.3
		c-1.3-1.1-3-1.8-4.8-1.8c-4.1,0-7.4,3.3-7.4,7.4C11,37.4,14.3,40.8,18.4,40.8z M54.2,7.4c2.2,0,3.9,1.8,3.9,3.9s-1.8,3.9-3.9,3.9
		s-3.9-1.8-3.9-3.9S52.1,7.4,54.2,7.4z M35.5,18.3c2.2,0,3.9,1.8,3.9,3.9c0,2.2-1.8,3.9-3.9,3.9c-2.2,0-3.9-1.8-3.9-3.9
		C31.6,20.1,33.4,18.3,35.5,18.3z M18.4,29.5c2.2,0,3.9,1.8,3.9,3.9c0,2.2-1.8,3.9-3.9,3.9c-2.2,0-3.9-1.8-3.9-3.9
		C14.5,31.2,16.3,29.5,18.4,29.5z"/>
</g>
</svg>
