<?xml version="1.0" encoding="utf-8"?>
<!-- Generator: Adobe Illustrator 22.0.1, SVG Export Plug-In . SVG Version: 6.00 Build 0)  -->
<svg fill="#000000" width="52" height="52" version="1.1" id="lni_lni-chat-alt-8" xmlns="http://www.w3.org/2000/svg" xmlns:xlink="http://www.w3.org/1999/xlink" x="0px"
	 y="0px" viewBox="0 0 64 64" style="enable-background:new 0 0 64 64;" xml:space="preserve">
<g>
	<path d="M39.3,5.3H24.8C11.8,5.3,1.3,15.5,1.3,28c0,12.6,8.2,21.4,28.3,30.5c0.4,0.2,0.8,0.3,1.2,0.3c0.6,0,1.1-0.2,1.6-0.5
		c0.9-0.6,1.4-1.5,1.4-2.5v-5h5.5c13,0,23.5-10.2,23.5-22.7C62.8,15.5,52.2,5.3,39.3,5.3z M39.3,47.2h-6c-1.7,0-3,1.3-3,3V55
		C11.9,46.6,4.8,39,4.8,28c0-10.6,9-19.2,20-19.2h14.5c11,0,20,8.6,20,19.2S50.3,47.2,39.3,47.2z"/>
	<path d="M17.3,26.1c-1.4,0-2.5,1.1-2.5,2.5c0,1.4,1.1,2.5,2.5,2.5s2.5-1.1,2.5-2.5C19.8,27.2,18.7,26.1,17.3,26.1z"/>
	<path d="M32,26.1c-1.4,0-2.5,1.1-2.5,2.5c0,1.4,1.1,2.5,2.5,2.5s2.5-1.1,2.5-2.5C34.5,27.2,33.4,26.1,32,26.1z"/>
	<path d="M46.7,26.1c-1.4,0-2.5,1.1-2.5,2.5c0,1.4,1.1,2.5,2.5,2.5s2.5-1.1,2.5-2.5C49.2,27.2,48.1,26.1,46.7,26.1z"/>
</g>
</svg>
