<svg fill="#000000" width="52" height="52" version="1.1" id="lni_lni-chat-alt-5" xmlns="http://www.w3.org/2000/svg" xmlns:xlink="http://www.w3.org/1999/xlink" x="0px"
	 y="0px" viewBox="0 0 64 64" style="enable-background:new 0 0 64 64;" xml:space="preserve">
<g>
	<path d="M57.1,6.9H6.9c-3.1,0-5.7,2.5-5.7,5.7v28.9c0,3.1,2.5,5.7,5.7,5.7h15.2l8.4,9.3c0.3,0.4,0.8,0.6,1.3,0.6c0,0,0,0,0,0
		c0.5,0,1-0.2,1.3-0.6l8.6-9.4h15.3c3.1,0,5.7-2.5,5.7-5.7V12.6C62.8,9.5,60.2,6.9,57.1,6.9z M59.3,41.5c0,1.2-1,2.2-2.2,2.2H41
		c-0.5,0-1,0.2-1.3,0.6l-7.9,8.5l-7.7-8.5c-0.3-0.4-0.8-0.6-1.3-0.6h-16c-1.2,0-2.2-1-2.2-2.2V12.6c0-1.2,1-2.2,2.2-2.2h50.2
		c1.2,0,2.2,1,2.2,2.2V41.5z"/>
	<path d="M16.7,24c-1.4,0-2.6,1.2-2.6,2.6s1.2,2.6,2.6,2.6c1.4,0,2.6-1.2,2.6-2.6S18.1,24,16.7,24z"/>
	<circle cx="32" cy="26.6" r="2.6"/>
	<path d="M47.3,24c-1.4,0-2.6,1.2-2.6,2.6s1.2,2.6,2.6,2.6c1.4,0,2.6-1.2,2.6-2.6S48.8,24,47.3,24z"/>
</g>
</svg>
