<svg fill="#000000" width="52" height="52" version="1.1" id="lni_lni-happy-2" xmlns="http://www.w3.org/2000/svg" xmlns:xlink="http://www.w3.org/1999/xlink" x="0px"
	 y="0px" viewBox="0 0 64 64" style="enable-background:new 0 0 64 64;" xml:space="preserve">
<g>
	<path d="M43.8,17.2c-4.6,0-8.4,4.3-8.4,9.5c0,1,0.8,1.8,1.8,1.8s1.8-0.8,1.8-1.8c0-3.3,2.2-6,4.9-6c2.7,0,4.9,2.7,4.9,6
		c0,1,0.8,1.8,1.8,1.8s1.8-0.8,1.8-1.8C52.3,21.4,48.5,17.2,43.8,17.2z"/>
	<path d="M25.1,26.7c0,1,0.8,1.8,1.8,1.8s1.8-0.8,1.8-1.8c0-5.2-3.8-9.5-8.4-9.5s-8.4,4.3-8.4,9.5c0,1,0.8,1.8,1.8,1.8
		s1.8-0.8,1.8-1.8c0-3.3,2.2-6,4.9-6S25.1,23.4,25.1,26.7z"/>
	<path d="M32,1.3C15,1.3,1.3,15,1.3,32C1.3,49,15,62.8,32,62.8C49,62.8,62.8,49,62.8,32C62.8,15,49,1.3,32,1.3z M32,59.2
		c-14.6,0-26.5-11.5-27.2-25.8c0-0.5,0-0.9,0-1.4C4.8,17,17,4.8,32,4.8C47,4.8,59.3,17,59.3,32c0,0.5,0,0.9,0,1.4
		C58.5,47.8,46.6,59.2,32,59.2z"/>
	<path d="M43.9,43.9c-3.2,3-7.4,4.6-11.9,4.6c-4.4,0-8.6-1.6-11.9-4.6c-0.7-0.7-1.8-0.6-2.5,0.1c-0.7,0.7-0.6,1.8,0.1,2.5
		c3.9,3.6,8.9,5.6,14.3,5.6c5.3,0,10.4-2,14.3-5.6c0.7-0.7,0.8-1.8,0.1-2.5C45.7,43.3,44.6,43.3,43.9,43.9z"/>
</g>
</svg>
