<svg fill="#000000" width="52" height="52" version="1.1" id="lni_lni-invoice-1" xmlns="http://www.w3.org/2000/svg" xmlns:xlink="http://www.w3.org/1999/xlink" x="0px"
	 y="0px" viewBox="0 0 64 64" style="enable-background:new 0 0 64 64;" xml:space="preserve">
<g>
	<path d="M56.6,7.9c0-3.7-3-6.6-6.6-6.6H14c-3.7,0-6.6,3-6.6,6.6v52c0,0.6,0.4,1.2,0.9,1.5s1.3,0.3,1.8-0.1l5.5-3.7l7.2,4.8
		c0.6,0.4,1.4,0.4,1.9,0l7.2-4.8l7.2,4.8c0.3,0.2,0.6,0.3,1,0.3c0.3,0,0.7-0.1,1-0.3l7.2-4.8l5.5,3.7c0.5,0.4,1.2,0.4,1.8,0.1
		c0.6-0.3,0.9-0.9,0.9-1.5L56.6,7.9z M50.2,54.7c-1.1-0.8-2.7-0.8-3.8,0l-6.3,4.2l-6.3-4.2c-0.6-0.4-1.2-0.6-1.9-0.6
		c-0.7,0-1.3,0.2-1.9,0.6l-6.3,4.2l-6.3-4.2c-1.2-0.8-2.6-0.8-3.8,0l-2.8,1.9V7.9c0-1.7,1.4-3.1,3.1-3.1h35.9c1.7,0,3.1,1.4,3.1,3.1
		l0,48.7L50.2,54.7z"/>
	<path d="M28.1,11.2h-8.9c-1,0-1.8,0.8-1.8,1.8s0.8,1.8,1.8,1.8h8.9c1,0,1.8-0.8,1.8-1.8S29,11.2,28.1,11.2z"/>
	<path d="M44.3,11.2h-2.4c-1,0-1.8,0.8-1.8,1.8s0.8,1.8,1.8,1.8h2.4c1,0,1.8-0.8,1.8-1.8S45.3,11.2,44.3,11.2z"/>
	<path d="M19.1,26h5.7c1,0,1.8-0.8,1.8-1.8s-0.8-1.8-1.8-1.8h-5.7c-1,0-1.8,0.8-1.8,1.8S18.1,26,19.1,26z"/>
	<path d="M44.3,22.5h-2.4c-1,0-1.8,0.8-1.8,1.8s0.8,1.8,1.8,1.8h2.4c1,0,1.8-0.8,1.8-1.8S45.3,22.5,44.3,22.5z"/>
	<path d="M28.1,33.9h-8.9c-1,0-1.8,0.8-1.8,1.8s0.8,1.8,1.8,1.8h8.9c1,0,1.8-0.8,1.8-1.8S29,33.9,28.1,33.9z"/>
	<path d="M44.3,33.9h-2.4c-1,0-1.8,0.8-1.8,1.8s0.8,1.8,1.8,1.8h2.4c1,0,1.8-0.8,1.8-1.8S45.3,33.9,44.3,33.9z"/>
	<path d="M24.8,45.3h-5.7c-1,0-1.8,0.8-1.8,1.8s0.8,1.8,1.8,1.8h5.7c1,0,1.8-0.8,1.8-1.8S25.8,45.3,24.8,45.3z"/>
	<path d="M44.3,45.3h-2.4c-1,0-1.8,0.8-1.8,1.8s0.8,1.8,1.8,1.8h2.4c1,0,1.8-0.8,1.8-1.8S45.3,45.3,44.3,45.3z"/>
</g>
</svg>
