<svg fill="#000000" width="52" height="52" version="1.1" id="lni_lni-link-alt" xmlns="http://www.w3.org/2000/svg" xmlns:xlink="http://www.w3.org/1999/xlink" x="0px"
	 y="0px" viewBox="0 0 64 64" style="enable-background:new 0 0 64 64;" xml:space="preserve">
<g>
	<path d="M9.5,27.2h12.3c1,0,1.8-0.8,1.8-1.8s-0.8-1.8-1.8-1.8H9.5c-4.6,0-8.3,3.7-8.3,8.3s3.7,8.3,8.3,8.3h12.3
		c1,0,1.8-0.8,1.8-1.8s-0.8-1.8-1.8-1.8H9.5c-2.6,0-4.8-2.2-4.8-4.8C4.8,29.4,6.9,27.2,9.5,27.2z"/>
	<path d="M36.5,30.3h-9c-1,0-1.8,0.8-1.8,1.8s0.8,1.8,1.8,1.8h9c1,0,1.8-0.8,1.8-1.8S37.5,30.3,36.5,30.3z"/>
	<path d="M54.5,23.7H42.2c-1,0-1.8,0.8-1.8,1.8s0.8,1.8,1.8,1.8h12.3c2.6,0,4.8,2.2,4.8,4.8c0,2.6-2.2,4.8-4.8,4.8H42.2
		c-1,0-1.8,0.8-1.8,1.8s0.8,1.8,1.8,1.8h12.3c4.6,0,8.3-3.7,8.3-8.3S59,23.7,54.5,23.7z"/>
</g>
</svg>
