
<!-- Generator: Adobe Illustrator 22.0.1, SVG Export Plug-In . SVG Version: 6.00 Build 0)  -->
<svg fill="#000000" width="52" height="52" version="1.1" id="lni_lni-menu-alt-2" xmlns="http://www.w3.org/2000/svg" xmlns:xlink="http://www.w3.org/1999/xlink" x="0px"
	 y="0px" viewBox="0 0 64 64" style="enable-background:new 0 0 64 64;" xml:space="preserve">
<g>
	<path d="M61,30.3H3c-1,0-1.8,0.8-1.8,1.8S2,33.8,3,33.8h58c1,0,1.8-0.8,1.8-1.8S62,30.3,61,30.3z"/>
	<path d="M49.7,47.9H14.3c-1,0-1.8,0.8-1.8,1.8s0.8,1.8,1.8,1.8h35.4c1,0,1.8-0.8,1.8-1.8S50.7,47.9,49.7,47.9z"/>
	<path d="M14.3,16.1h35.4c1,0,1.8-0.8,1.8-1.8s-0.8-1.8-1.8-1.8H14.3c-1,0-1.8,0.8-1.8,1.8S13.3,16.1,14.3,16.1z"/>
</g>
</svg>
