<svg fill="#000000" width="52" height="52" version="1.1" id="lni_lni-chat-alt-7" xmlns="http://www.w3.org/2000/svg" xmlns:xlink="http://www.w3.org/1999/xlink" x="0px"
	 y="0px" viewBox="0 0 64 64" style="enable-background:new 0 0 64 64;" xml:space="preserve">
<g>
	<path d="M44.1,9.3H19.9C9.6,9.3,1.3,17.7,1.3,28v21c0,3.1,2.5,5.7,5.7,5.7h37.1c10.3,0,18.7-8.4,18.7-18.7v-8
		C62.8,17.7,54.4,9.3,44.1,9.3z M59.3,36c0,8.4-6.8,15.2-15.2,15.2H6.9c-1.2,0-2.2-1-2.2-2.2V28c0-8.4,6.8-15.2,15.2-15.2h24.1
		c8.4,0,15.2,6.8,15.2,15.2V36z"/>
	<path d="M16.7,29.4c-1.4,0-2.6,1.2-2.6,2.6c0,1.4,1.2,2.6,2.6,2.6c1.4,0,2.6-1.2,2.6-2.6C19.3,30.6,18.1,29.4,16.7,29.4z"/>
	<circle cx="32" cy="32" r="2.6"/>
	<path d="M47.3,29.4c-1.4,0-2.6,1.2-2.6,2.6c0,1.4,1.2,2.6,2.6,2.6c1.4,0,2.6-1.2,2.6-2.6C49.9,30.6,48.8,29.4,47.3,29.4z"/>
</g>
</svg>
