<!-- Generator: Adobe Illustrator 22.0.1, SVG Export Plug-In . SVG Version: 6.00 Build 0)  -->
<svg fill="#000000" width="52" height="52" version="1.1" id="lni_lni-microphone-alt" xmlns="http://www.w3.org/2000/svg" xmlns:xlink="http://www.w3.org/1999/xlink"
	 x="0px" y="0px" viewBox="0 0 64 64" style="enable-background:new 0 0 64 64;" xml:space="preserve">
<g>
	<path d="M32,34.9c6.7,0,12.1-5.4,12.1-12.1v-9.4c0-6.7-5.4-12.1-12.1-12.1S19.9,6.7,19.9,13.4v9.4C19.9,29.5,25.3,34.9,32,34.9z
		 M23.4,13.4c0-4.8,3.9-8.6,8.6-8.6c4.8,0,8.6,3.9,8.6,8.6v9.4c0,4.8-3.9,8.6-8.6,8.6c-4.8,0-8.6-3.9-8.6-8.6V13.4z"/>
	<path d="M52.9,23.4c0-1-0.8-1.8-1.8-1.8s-1.8,0.8-1.8,1.8c0,9.5-7.8,17.2-17.4,17.2s-17.4-7.7-17.4-17.2c0-1-0.8-1.8-1.8-1.8
		s-1.8,0.8-1.8,1.8c0,10.8,8.4,19.8,19.1,20.6v17c0,1,0.8,1.8,1.8,1.8s1.8-0.8,1.8-1.8V44C44.4,43.1,52.9,34.2,52.9,23.4z"/>
</g>
</svg>
