<!-- Generator: Adobe Illustrator 24.1.2, SVG Export Plug-In . SVG Version: 6.00 Build 0)  -->
<svg version="1.1" id="lni_lni-hospital-location" xmlns="http://www.w3.org/2000/svg" xmlns:xlink="http://www.w3.org/1999/xlink"
	 x="0px" y="0px" viewBox="0 0 52 52" style="enable-background:new 0 0 52 52;" xml:space="preserve">
<g>
	<path d="M26,41.8c1.1,0,2-0.4,2.7-1.2c5.1-5.7,13.6-16.3,13.6-23c0-9-7.3-16.3-16.3-16.3S9.7,8.5,9.7,17.6c0,6.7,8.5,17.3,13.6,23
		C24,41.3,24.9,41.8,26,41.8z M26,4.1c7.4,0,13.5,6,13.5,13.5c0,4.1-4.8,12-12.9,21c-0.2,0.2-0.5,0.2-0.6,0.2s-0.4,0-0.6-0.2
		c-8-9-12.9-16.9-12.9-21C12.5,10.1,18.6,4.1,26,4.1z"/>
	<path d="M43.5,31.4c-0.7-0.3-1.5,0-1.9,0.7c-0.3,0.7,0,1.5,0.7,1.9c3.7,1.5,5.8,3.6,5.8,5.5c0.1,4-9,8.4-22.1,8.4
		S3.9,43.5,3.9,39.5c0-2,2.2-4,5.9-5.6c0.7-0.3,1.1-1.1,0.7-1.9S9.4,31,8.7,31.3c-5,2.1-7.7,5-7.7,8.2c0,6.4,10.7,11.2,25,11.2
		s25-4.9,25-11.2C51,36.3,48.3,33.5,43.5,31.4z"/>
</g>
</svg>
