<svg fill="#000000" width="52" height="52" version="1.1" id="lni_lni-newspaper" xmlns="http://www.w3.org/2000/svg" xmlns:xlink="http://www.w3.org/1999/xlink" x="0px"
	 y="0px" viewBox="0 0 64 64" style="enable-background:new 0 0 64 64;" xml:space="preserve">
<g>
	<path d="M61,7c-1,0-1.8,0.8-1.8,1.8v42.1c0,4.2-3.5,7.7-7.7,7.7H11.3c-3.6,0-6.5-2.9-6.5-6.5V8.4c0-1.6,1.3-3,3-3H46
		c1.6,0,3,1.3,3,3v40.4c0,1,0.8,1.8,1.8,1.8s1.8-0.8,1.8-1.8V8.4C52.5,4.9,49.6,2,46,2H7.7C4.2,2,1.2,4.9,1.2,8.4V52
		c0,5.5,4.5,10,10,10h40.3c6.2,0,11.2-5,11.2-11.2V8.7C62.8,7.7,62,7,61,7z"/>
	<path d="M42.9,11.4H12.1c-1,0-1.8,0.8-1.8,1.8s0.8,1.8,1.8,1.8h30.8c1,0,1.8-0.8,1.8-1.8S43.9,11.4,42.9,11.4z"/>
	<path d="M12.1,49.7h30.8c1,0,1.8-0.8,1.8-1.8s-0.8-1.8-1.8-1.8H12.1c-1,0-1.8,0.8-1.8,1.8S11.1,49.7,12.1,49.7z"/>
	<path d="M26,38.2c1,0,1.8-0.8,1.8-1.8V22c0-1-0.8-1.8-1.8-1.8H11.6c-1,0-1.8,0.8-1.8,1.8v14.4c0,1,0.8,1.8,1.8,1.8H26z M13.3,23.8
		h10.9v10.9H13.3V23.8z"/>
	<path d="M35.2,25.4h7c1,0,1.8-0.8,1.8-1.8s-0.8-1.8-1.8-1.8h-7c-1,0-1.8,0.8-1.8,1.8S34.2,25.4,35.2,25.4z"/>
	<path d="M35.2,35.9h7c1,0,1.8-0.8,1.8-1.8s-0.8-1.8-1.8-1.8h-7c-1,0-1.8,0.8-1.8,1.8S34.2,35.9,35.2,35.9z"/>
</g>
</svg>
