<svg xmlns="http://www.w3.org/2000/svg" xmlns:xlink="http://www.w3.org/1999/xlink" id="lni_lni-notification" x="0px" y="0px" viewBox="0 0 47.8 47.8" style="enable-background:new 0 0 47.8 47.8;" xml:space="preserve"> <path d="M40.7,38.3L39.3,36c-0.2-0.2-0.3-0.6-0.4-1.4V20.2c0-7.7-6.1-14.3-14.2-15.1C24.5,5,24.3,5,24.1,5c0.1-0.2,0.1-0.3,0.1-0.5 V1.6c0-0.8-0.6-1.5-1.4-1.5s-1.4,0.7-1.4,1.5v2.9c0,0.2,0,0.3,0.1,0.5c-0.2,0-0.4,0-0.6,0.1C12.7,5.9,6.6,12.5,6.6,20.2v14.5 c-0.1,0.7-0.2,1.1-0.4,1.4l-1.4,2.3c-0.4,0.7-0.5,1.4-0.1,2l0.1,0.2c0.4,0.7,1.1,1,1.8,1h14.8v2.8c0,0.8,0.6,1.4,1.4,1.5 c0.8,0,1.4-0.7,1.4-1.5v-2.8h14.8c0.7,0,1.4-0.3,1.8-1l0.1-0.2C41.2,39.7,41.1,39,40.7,38.3z M22.9,38.5 C22.8,38.5,22.9,38.5,22.9,38.5c-0.2,0-0.1,0-0.2,0H8l0.7-1.1c0.4-0.7,0.6-1.5,0.7-2.5V20.1c0-6.3,5-11.6,11.7-12.3 c0.6-0.1,1.1-0.1,1.7-0.1c0.6,0,1.1,0,1.7,0.1c6.7,0.7,11.7,6,11.7,12.3v14.8c0.1,1.1,0.3,1.8,0.7,2.5l0.7,1.1H22.9z"></path> </svg>