
<svg  width="52" height="52" version="1.1" id="lni_lni-page" xmlns="http://www.w3.org/2000/svg" xmlns:xlink="http://www.w3.org/1999/xlink" x="0px"
	 y="0px" viewBox="0 0 64 64" style="enable-background:new 0 0 64 64;" xml:space="preserve">
<g>
	<path d="M52.9,20.2l-18-17c-1-1-2.3-1.5-3.7-1.5H14.8c-3,0-5.4,2.4-5.4,5.4v49.7c0,3,2.4,5.4,5.4,5.4h34.4c3,0,5.4-2.4,5.4-5.4
		V24.1C54.6,22.6,54,21.2,52.9,20.2z M34.3,8.8l12.6,11.8H35.2c-0.5,0-0.9-0.4-0.9-0.8V8.8z M49.2,57.8H14.8c-0.5,0-0.9-0.4-0.9-0.9
		V7.2c0-0.5,0.4-0.9,0.9-0.9h14.9v13.5c0,2.9,2.4,5.3,5.4,5.3h15v31.7C50.1,57.3,49.7,57.8,49.2,57.8z"/>
	<path d="M38.9,36.1l0.1-0.4c0.2-1.2-0.6-2.4-1.8-2.6c-1.2-0.2-2.4,0.6-2.6,1.8L34.3,36h-4.9l0.1-0.4c0.2-1.2-0.6-2.4-1.8-2.6
		c-1.2-0.2-2.4,0.6-2.6,1.8L24.8,36h0c-1.2,0-2.3,1-2.3,2.3c0,1,0.6,1.8,1.5,2.1l-0.7,3.7h-0.6c-1.2,0-2.3,1-2.3,2.3
		c0,1.2,0.9,2.1,2,2.2l-0.1,0.6c-0.2,1.2,0.6,2.4,1.8,2.6c0.1,0,0.3,0,0.4,0c1.1,0,2-0.8,2.2-1.8l0.3-1.4h4.9l-0.1,0.5
		c-0.2,1.2,0.6,2.4,1.8,2.6c0.1,0,0.3,0,0.4,0c1.1,0,2-0.8,2.2-1.8l0.3-1.4c1.2-0.1,2.1-1,2.1-2.2c0-0.9-0.5-1.7-1.3-2l0.7-3.8h0.3
		c1.2,0,2.3-1,2.3-2.3C40.5,37.2,39.8,36.4,38.9,36.1z M32.8,44.1h-4.9l0.7-3.6h4.9L32.8,44.1z"/>
</g>
</svg>
