
<svg width="52" height="52" version="1.1" id="lni_lni-paint-bucket" xmlns="http://www.w3.org/2000/svg" xmlns:xlink="http://www.w3.org/1999/xlink"
	 x="0px" y="0px" viewBox="0 0 64 64" style="enable-background:new 0 0 64 64;" xml:space="preserve">
<path d="M58.8,37.1c0,0-15.7-15.4-15.7-15.4c0,0,0,0,0,0L34.2,13V9.6c0-4.3-3.9-7.8-8.6-7.8S17,5.3,17,9.6L17,24.3L5.4,35.7
	c-0.7,0.6-1.1,1.5-1.1,2.4c0,1,0.4,1.9,1.1,2.6l20.9,20.5c0.7,0.7,1.6,1,2.5,1c0.9,0,1.7-0.3,2.5-0.9c0,0,0.1-0.1,0.1-0.1l19-18.6
	l6.8-0.6c1.1-0.1,2-0.9,2.4-2C59.9,39.1,59.6,37.9,58.8,37.1z M21.5,9.6c0-1.8,1.9-3.3,4.1-3.3s4.1,1.6,4.1,3.3v2.3L21.5,20
	L21.5,9.6z M49.1,38.2c-0.5,0-1,0.3-1.4,0.6L28.8,57.4L9.2,38.2l22.2-21.7l6.9,6.8L32.6,29c-0.9,0.9-0.9,2.3,0,3.2
	c0.4,0.4,1,0.7,1.6,0.7c0.6,0,1.1-0.2,1.6-0.7l5.8-5.7l3.4,3.3l-3.5,3.4c-0.9,0.9-0.9,2.3,0,3.2c0.4,0.4,1,0.7,1.6,0.7
	c0.6,0,1.1-0.2,1.6-0.6l3.6-3.5l5,4.9L49.1,38.2z"/>
</svg>
