
<svg  width="52" height="52" version="1.1" id="lni_lni-percentage-alt" xmlns="http://www.w3.org/2000/svg" xmlns:xlink="http://www.w3.org/1999/xlink"
	 x="0px" y="0px" viewBox="0 0 64 64" style="enable-background:new 0 0 64 64;" xml:space="preserve">
<g>
	<path d="M34.3,3.4c-8,0-15.6,3.4-21,9.2c-0.8,0.9-0.8,2.3,0.1,3.2c0.9,0.8,2.3,0.8,3.2-0.1c4.5-4.9,11-7.8,17.7-7.8
		c13.3,0,24.1,10.8,24.1,24.1S47.5,56.1,34.3,56.1c-10.2,0-19.1-6.3-22.6-15.8l4.8,1.9c1.1,0.5,2.5-0.1,2.9-1.2
		c0.5-1.2-0.1-2.5-1.2-2.9l-9.9-4c-1.1-0.5-2.5,0.1-2.9,1.2l-4,9.9c-0.5,1.2,0.1,2.5,1.2,2.9c0.3,0.1,0.6,0.2,0.8,0.2
		c0.9,0,1.7-0.5,2.1-1.4l2-4.9c4.2,11.2,14.7,18.6,26.7,18.6C50,60.6,62.8,47.7,62.8,32C62.8,16.3,50,3.4,34.3,3.4z"/>
	<path d="M43.9,19.9L22.7,41c-0.9,0.9-0.9,2.3,0,3.2c0.4,0.4,1,0.7,1.6,0.7s1.2-0.2,1.6-0.7L47,23c0.9-0.9,0.9-2.3,0-3.2
		C46.2,19,44.7,19,43.9,19.9z"/>
	<path d="M27,17.8c-3.4,0-6.1,2.7-6.1,6.1S23.6,30,27,30s6.1-2.7,6.1-6.1S30.3,17.8,27,17.8z M27,25.5c-0.9,0-1.6-0.7-1.6-1.6
		s0.7-1.6,1.6-1.6s1.6,0.7,1.6,1.6S27.8,25.5,27,25.5z"/>
	<path d="M42.5,34.3c-3.4,0-6.1,2.7-6.1,6.1s2.7,6.1,6.1,6.1s6.1-2.7,6.1-6.1S45.9,34.3,42.5,34.3z M42.5,42c-0.9,0-1.6-0.7-1.6-1.6
		s0.7-1.6,1.6-1.6s1.6,0.7,1.6,1.6S43.4,42,42.5,42z"/>
</g>
</svg>
