<svg fill="#000000" width="52" height="52" version="1.1" id="lni_lni-remove-user" xmlns="http://www.w3.org/2000/svg" xmlns:xlink="http://www.w3.org/1999/xlink"
	 x="0px" y="0px" viewBox="0 0 64 64" style="enable-background:new 0 0 64 64;" xml:space="preserve">
<g>
	<path d="M20.6,35.4c5.4,0,9.8-4.4,9.8-9.8c0-5.4-4.4-9.8-9.8-9.8s-9.8,4.4-9.8,9.8C10.9,31,15.2,35.4,20.6,35.4z M20.6,19.3
		c3.5,0,6.3,2.8,6.3,6.3s-2.8,6.3-6.3,6.3s-6.3-2.8-6.3-6.3S17.2,19.3,20.6,19.3z"/>
	<path d="M20.6,38.3c-6.9,0-13.6,2.4-18.8,6.8c-0.7,0.6-0.8,1.7-0.2,2.5c0.6,0.7,1.7,0.8,2.5,0.2c4.6-3.9,10.4-6,16.5-6
		s11.9,2.1,16.5,6c0.3,0.3,0.7,0.4,1.1,0.4c0.5,0,1-0.2,1.3-0.6c0.6-0.7,0.5-1.8-0.2-2.5C34.2,40.7,27.5,38.3,20.6,38.3z"/>
	<path d="M61,37.3H50.4c-1,0-1.8,0.8-1.8,1.8s0.8,1.8,1.8,1.8H61c1,0,1.8-0.8,1.8-1.8S62,37.3,61,37.3z"/>
</g>
</svg>
