<?xml version="1.0" encoding="utf-8"?>
<!-- Generator: Adobe Illustrator 22.0.0, SVG Export Plug-In . SVG Version: 6.00 Build 0)  -->
<svg fill="#1C2033" width="52" height="52" version="1.1" id="Layer_1" xmlns="http://www.w3.org/2000/svg" xmlns:xlink="http://www.w3.org/1999/xlink" x="0px" y="0px"
	 viewBox="0 0 64 64" style="enable-background:new 0 0 64 64;" xml:space="preserve">
<path d="M59.6,29.7c-0.4-0.7-1-1.2-1.7-1.6L11.8,2.3C11,1.9,10.1,1.7,9.2,1.8c-0.9,0.1-1.7,0.4-2.4,1C6.1,3.4,5.6,4.2,5.4,5
	C5.1,5.9,5.2,6.8,5.5,7.7L14.1,32L5.5,56.3c-0.3,0.9-0.3,1.8-0.1,2.6c0.2,0.9,0.7,1.6,1.4,2.2c0.7,0.6,1.5,0.9,2.4,1
	c0.1,0,0.3,0,0.4,0c0.7,0,1.5-0.2,2.2-0.6l46.1-25.8c0.7-0.4,1.3-0.9,1.7-1.6c0.4-0.7,0.6-1.5,0.6-2.2C60.2,31.2,60,30.4,59.6,29.7z
	 M9.8,6.3l41.8,23.4H18.1L9.8,6.3z M9.8,57.7l8.4-23.4h33.5L9.8,57.7z"/>
</svg>
