<svg fill="#000000" width="52" height="52" version="1.1" id="lni_lni-shopping-bag-11" xmlns="http://www.w3.org/2000/svg" xmlns:xlink="http://www.w3.org/1999/xlink"
	 x="0px" y="0px" viewBox="0 0 64 64" style="enable-background:new 0 0 64 64;" xml:space="preserve">
<g>
	<path d="M56.7,54.7l-4.2-36.4c-0.4-3.6-3.5-6.4-7.2-6.4h-2.8c0,0,0-0.1,0-0.1C42.5,6,37.8,1.2,32,1.2c-5.8,0-10.5,4.7-10.5,10.5
		c0,0,0,0.1,0,0.1h-2.8c-3.7,0-6.7,2.7-7.2,6.4L7.3,54.7c-0.2,2,0.4,4.1,1.8,5.6c1.4,1.5,3.3,2.4,5.4,2.4h35.1c2.1,0,4-0.9,5.4-2.4
		S56.9,56.8,56.7,54.7z M25,11.8c0-3.9,3.2-7,7-7s7,3.2,7,7c0,0,0,0.1,0,0.1H25C25,11.9,25,11.8,25,11.8z M52.3,58
		c-0.7,0.8-1.7,1.2-2.8,1.2H14.5c-1.1,0-2.1-0.4-2.8-1.2c-0.7-0.8-1-1.8-0.9-2.9L15,18.7c0.2-1.9,1.8-3.3,3.7-3.3h4.8c0,0,0,0,0,0
		h17.2c0,0,0,0,0,0c0,0,0,0,0,0h4.7c1.9,0,3.5,1.4,3.7,3.3l4.2,36.4C53.4,56.2,53,57.2,52.3,58z"/>
	<path d="M36.6,30.8l-7.1,7.1l-2.1-2.1c-0.7-0.7-1.8-0.7-2.5,0c-0.7,0.7-0.7,1.8,0,2.5l3.3,3.3c0.3,0.3,0.8,0.5,1.2,0.5
		s0.9-0.2,1.2-0.5l8.4-8.4c0.7-0.7,0.7-1.8,0-2.5C38.4,30.1,37.3,30.1,36.6,30.8z"/>
</g>
</svg>
