<svg fill="#000000" width="52" height="52" version="1.1" id="lni_lni-switch" xmlns="http://www.w3.org/2000/svg" xmlns:xlink="http://www.w3.org/1999/xlink" x="0px"
	 y="0px" viewBox="0 0 64 64" style="enable-background:new 0 0 64 64;" xml:space="preserve">
<g>
	<path d="M52.3,36.6c-0.7-0.7-1.8-0.7-2.5-0.1c-0.7,0.7-0.7,1.8-0.1,2.5l8.2,8.6L3,47.7c-1,0-1.7,0.8-1.7,1.8c0,1,0.8,1.7,1.8,1.7
		c0,0,0,0,0,0L58,51l-8.2,8.8c-0.7,0.7-0.6,1.8,0.1,2.5c0.3,0.3,0.8,0.5,1.2,0.5c0.5,0,0.9-0.2,1.3-0.6l9.3-10l0.1-0.1
		c1.3-1.6,1.3-4,0-5.7L52.3,36.6z"/>
	<path d="M11.6,27.8c0.3,0.4,0.8,0.5,1.3,0.5c0.4,0,0.9-0.2,1.2-0.5c0.7-0.7,0.7-1.8,0.1-2.5L6,16.8l55-0.2c1,0,1.7-0.8,1.7-1.8
		c0-1-0.8-1.7-1.8-1.7c0,0,0,0,0,0L6,13.3l8.6-9.1c0.7-0.7,0.6-1.8-0.1-2.5s-1.8-0.6-2.5,0.1L2.3,12.1l-0.1,0.1
		c-1.3,1.6-1.3,4,0,5.7L11.6,27.8z"/>
</g>
</svg>
