<svg fill="#000000" width="52" height="52" version="1.1" id="lni_lni-user-information" xmlns="http://www.w3.org/2000/svg" xmlns:xlink="http://www.w3.org/1999/xlink"
	 x="0px" y="0px" viewBox="0 0 64 64" style="enable-background:new 0 0 64 64;" xml:space="preserve">
<g>
	<path d="M45.7,48.4c-1,0-1.8,0.8-1.8,1.8v3.5c0,1,0.8,1.8,1.8,1.8s1.8-0.8,1.8-1.8v-3.5C47.5,49.2,46.7,48.4,45.7,48.4z"/>
	<path d="M45.7,33.2c-0.6,0-1.1,0-1.7,0.1c0,0,0,0,0-0.1c-3.3-3.9-7.4-6.5-12-7.5c4.6-1.9,7.9-6.5,7.9-11.8c0-7-5.7-12.7-12.7-12.7
		c-7,0-12.7,5.7-12.7,12.7c0,5.3,3.3,9.9,7.9,11.8c-4.6,1.1-8.7,3.6-12,7.5c-4.3,5.1-6.7,12.2-6.9,19.9c0,0.7,0.4,1.3,1,1.6
		c2.7,1.4,12.4,5.8,22.7,5.8c3,0,6.2-0.3,9.4-1c2.5,2,5.7,3.2,9.2,3.2c8.2,0,14.8-6.6,14.8-14.8C60.5,39.8,53.9,33.2,45.7,33.2z
		 M18,14c0-5.1,4.1-9.2,9.2-9.2s9.2,4.1,9.2,9.2s-4.1,9.2-9.2,9.2S18,19,18,14z M7,52.1c0.3-6.5,2.4-12.4,6-16.6
		c3.7-4.4,8.7-6.8,14.1-6.8c4.9,0,9.4,2,13,5.6c-5.4,2.2-9.2,7.5-9.2,13.7c0,3.2,1,6.1,2.7,8.5c-2.2,0.3-4.4,0.5-6.5,0.5
		C18.6,57,10.5,53.7,7,52.1z M45.7,59.3c-6.2,0-11.3-5.1-11.3-11.3s5.1-11.3,11.3-11.3S57,41.7,57,48S51.9,59.3,45.7,59.3z"/>
	<circle cx="45.7" cy="42.9" r="2.4"/>
</g>
</svg>
