<svg fill="#000000" width="52" height="52" version="1.1" id="lni_lni-user-alt-1" xmlns="http://www.w3.org/2000/svg" xmlns:xlink="http://www.w3.org/1999/xlink" x="0px"
	 y="0px" viewBox="0 0 64 64" style="enable-background:new 0 0 64 64;" xml:space="preserve">
<g>
	<path d="M32,27.3c7.4,0,13.4-5.8,13.4-13s-6-13-13.4-13c-7.4,0-13.4,5.8-13.4,13S24.6,27.3,32,27.3z M32,4.8c5.5,0,9.9,4.3,9.9,9.5
		s-4.5,9.5-9.9,9.5c-5.5,0-9.9-4.3-9.9-9.5S26.5,4.8,32,4.8z"/>
	<path d="M32,34.4C19,34.4,8.4,45,8.4,58v3c0,1,0.8,1.8,1.8,1.8s1.8-0.8,1.8-1.8v-3c0-11.1,9-20.1,20.1-20.1s20.1,9,20.1,20.1v3
		c0,1,0.8,1.8,1.8,1.8s1.8-0.8,1.8-1.8v-3C55.6,45,45,34.4,32,34.4z"/>
</g>
</svg>
